<svg xmlns="http://www.w3.org/2000/svg" xmlns:xlink="http://www.w3.org/1999/xlink" viewBox="0 0 378.58 280.92"><defs><style>.cls-1,.cls-10,.cls-18,.cls-9{fill:none;}.cls-12,.cls-15,.cls-2,.cls-20,.cls-8{fill:#fff;}.cls-10,.cls-11,.cls-12,.cls-2,.cls-20,.cls-3,.cls-6,.cls-9{stroke:#263238;stroke-linejoin:round;}.cls-10,.cls-11,.cls-12,.cls-18,.cls-2,.cls-20,.cls-3,.cls-6,.cls-9{stroke-linecap:round;}.cls-2,.cls-20,.cls-3,.cls-6,.cls-9{stroke-width:0.75px;}.cls-3,.cls-4,.cls-5{fill:#c6ff00;}.cls-5{opacity:0.8;}.cls-11,.cls-6,.cls-7{fill:#263238;}.cls-13{clip-path:url(#clip-path);}.cls-14{clip-path:url(#clip-path-2);}.cls-15,.cls-20{opacity:0.5;}.cls-16{clip-path:url(#clip-path-3);}.cls-17{clip-path:url(#clip-path-4);}.cls-18{stroke:#fff;stroke-miterlimit:10;}.cls-19{clip-path:url(#clip-path-5);}.cls-21{clip-path:url(#clip-path-6);}.cls-22{clip-path:url(#clip-path-7);}</style><clipPath id="clip-path" transform="translate(-9.18)"><rect className="cls-1" y="45.66" width="230" height="228"/></clipPath><clipPath id="clip-path-2" transform="translate(-9.18)"><path className="cls-2" d="M168.41,71.55s25.6,30.43,31,36,5.58,9.63,3.85,12.13-14.83,7.13-28.31,15.79-51.8,31-52.18,31.77-4-26.95-4-26.95l64.12-26.38-.2-1.93L161.86,73.48Z"/></clipPath><clipPath id="clip-path-3" transform="translate(-9.18)"><path className="cls-2" d="M102.1,276.05c10.46-1.76,23.85-8.95,27.84-18-3-15.69-6.79-37.79-6.79-51.3,0-22.72,6-35.63,3.28-51s-8.47-25.42-14.64-29.46c0,0-9.43,2.5-19.06,11.55s-18.1,24.65-21.37,39.48-7.71,60.46-7.71,72.4-.86,26.76-.86,26.76c11.53,0,23.06,0,34.6,0A27.51,27.51,0,0,0,102.1,276.05Z"/></clipPath><clipPath id="clip-path-4" transform="translate(-9.18)"><path className="cls-2" d="M124.12,101.59s.58,7.51,1.15,11.17-8.47,13.86-8.47,13.86l13.09,19.84,14.83-11.56s21-1.54,22.91-3.27,1.93-20.8,1.93-20.8l5-2.88s-4.62-20-5.78-24.46l-1.16-4.43s6.74-2.31,5.2-9-11.36-10-21.18-8.47-12.32,5.2-12.32,5.2-13.86-.19-21.76,6.35S114.49,90,117,93.7A57.72,57.72,0,0,0,124.12,101.59Z"/></clipPath><clipPath id="clip-path-5" transform="translate(-9.18)"><path className="cls-3" d="M139.14,111.22S138,99.09,132,98.7,126.24,107,128,113s6,7.9,9.43,4.82"/></clipPath><clipPath id="clip-path-6" transform="translate(-9.18)"><path className="cls-2" d="M117.38,119.31l19.25,29.27-8.85,11.36a222.65,222.65,0,0,0-13.29-22.34c-6.55-9.24-7.32-10.78-7.32-10.78Z"/></clipPath><clipPath id="clip-path-7" transform="translate(-9.18)"><path className="cls-2" d="M112.18,183.43s-5.59-23.3-7.9-28.5-15.4-10-21.75,1.35-.58,24.26,1.73,33.5,16.94,51,19.06,56.23,6,4,8.09,3.46,60.65-47.75,60.65-47.75l-4.62-10.4L122,214.62Z"/></clipPath></defs><g id="Layer_2" data-name="Layer 2"><g id="Background_Simple" data-name="Background Simple"><path className="cls-4" d="M374.17,140.17c-3.38-27-11.86-53.08-22-71.76-24.47-44.91-92.63-75-144-67.19-43.81,6.62-64.86,46.59-104.36,60.47C67.38,74.45,34.67,84.3,17.53,118c-36.2,71.12,52.52,148.88,128.55,142.82,24-1.92,45.43-11.15,70.06-6.82,50,8.79,66.6,18.24,110.76.65C370.42,237.28,380.1,187.4,374.17,140.17Z" transform="translate(-9.18)"/><path className="cls-5" d="M374.17,140.17c-3.38-27-11.86-53.08-22-71.76-24.47-44.91-92.63-75-144-67.19-43.81,6.62-64.86,46.59-104.36,60.47C67.38,74.45,34.67,84.3,17.53,118c-36.2,71.12,52.52,148.88,128.55,142.82,24-1.92,45.43-11.15,70.06-6.82,50,8.79,66.6,18.24,110.76.65C370.42,237.28,380.1,187.4,374.17,140.17Z" transform="translate(-9.18)"/></g><g id="Device"><polyline className="cls-2" points="190.06 276.09 147.41 180.59 250.76 180.59 378.21 264.66"/><polygon className="cls-6" points="179.48 272.32 147.41 186.96 147.41 180.59 192.78 280.54 179.48 272.32"/><polygon className="cls-2" points="206.5 184.53 250.46 236.07 197.1 248.5 166.78 190.9 206.5 184.53"/><polygon className="cls-6" points="197.1 248.5 197.1 250.02 249.55 239.41 250.46 236.07 197.1 248.5"/><polygon className="cls-7" points="204.84 203.08 207.08 206.39 212.81 204.84 210.43 201.61 204.84 203.08"/><polygon className="cls-7" points="226.49 223.39 223.77 219.7 217.27 221.46 219.81 225.22 226.49 223.39"/><polygon className="cls-7" points="200.16 196.16 201.84 198.63 207.22 197.26 205.53 194.97 200.16 196.16"/><polygon className="cls-7" points="210.53 211.49 213.61 216.05 219.9 214.45 216.5 209.85 210.53 211.49"/><polygon className="cls-7" points="226.82 213.63 221.43 215 224.13 218.66 229.62 217.18 226.82 213.63"/><polygon className="cls-7" points="214.16 216.85 216.73 220.66 223.19 218.92 220.48 215.24 214.16 216.85"/><polygon className="cls-7" points="194.07 197.51 195.74 200.19 200.9 198.87 199.21 196.37 194.07 197.51"/><polygon className="cls-7" points="207.62 207.19 209.99 210.7 215.92 209.06 213.39 205.63 207.62 207.19"/><polygon className="cls-7" points="202.38 199.43 204.3 202.28 209.84 200.82 207.8 198.05 202.38 199.43"/><polygon className="cls-7" points="190.74 205.86 189.06 202.82 182.93 204.38 184.64 207.47 190.74 205.86"/><polygon className="cls-7" points="181.93 213.19 186.14 212.05 184.19 208.53 180.04 209.63 181.93 213.19"/><polygon className="cls-7" points="192.25 194.57 193.57 196.69 198.66 195.56 197.29 193.54 192.25 194.57"/><polygon className="cls-7" points="188.6 202 186.98 199.07 180.75 200.45 182.47 203.56 188.6 202"/><polygon className="cls-7" points="186.21 195.8 187.45 198.04 192.63 196.9 191.3 194.76 186.21 195.8"/><polygon className="cls-7" points="177.5 204.82 181.56 203.79 179.82 200.66 175.77 201.55 177.5 204.82"/><polygon className="cls-7" points="178.99 197.28 180.29 199.62 186.52 198.25 185.27 195.99 178.99 197.28"/><polygon className="cls-7" points="198.56 204.74 200.66 208.13 206.16 206.65 203.91 203.32 198.56 204.74"/><polygon className="cls-7" points="212.68 216.29 209.61 211.75 203.88 213.33 206.66 217.82 212.68 216.29"/><polygon className="cls-7" points="187.91 198.87 189.51 201.77 194.81 200.42 193.13 197.71 187.91 198.87"/><polygon className="cls-7" points="189.11 217.4 184.79 218.59 187.03 222.82 191.48 221.68 189.11 217.4"/><polygon className="cls-7" points="201.16 208.94 203.38 212.52 209.07 210.95 206.69 207.44 201.16 208.94"/><polygon className="cls-7" points="197.14 204.17 195.31 201.23 189.97 202.59 191.65 205.62 197.14 204.17"/><polygon className="cls-7" points="207.17 235.53 201.06 237.08 203.24 241.02 209.37 239.5 207.17 235.53"/><polygon className="cls-7" points="197.71 192.52 202.94 191.46 200.13 187.64 194.98 188.49 197.71 192.52"/><polygon className="cls-7" points="184.81 195.16 182.28 190.59 175.87 191.64 178.53 196.44 184.81 195.16"/><polygon className="cls-7" points="193.12 210.17 191.19 206.68 185.1 208.29 187.05 211.81 193.12 210.17"/><polygon className="cls-7" points="208.7 222.84 206.24 218.87 199.88 220.49 202.16 224.61 208.7 222.84"/><polygon className="cls-7" points="205.74 218.06 202.96 213.58 196.97 215.23 199.42 219.66 205.74 218.06"/><polygon className="cls-7" points="215.81 220.92 213.22 217.09 207.16 218.63 209.62 222.59 215.81 220.92"/><polygon className="cls-7" points="199.74 208.38 197.64 204.98 192.1 206.44 194.03 209.92 199.74 208.38"/><polygon className="cls-7" points="196.24 201 198.06 203.93 203.37 202.53 201.44 199.67 196.24 201"/><polygon className="cls-7" points="202.46 212.77 200.24 209.19 194.48 210.74 196.52 214.41 202.46 212.77"/><polygon className="cls-7" points="218.89 225.47 216.34 221.71 210.12 223.4 212.49 227.22 218.89 225.47"/><polygon className="cls-7" points="214.78 232.65 212.07 228.28 205.23 230.15 207.63 234.47 214.78 232.65"/><polygon className="cls-7" points="194.28 226.74 191.94 222.51 187.47 223.64 189.75 227.97 194.28 226.74"/><polygon className="cls-7" points="186.6 212.87 182.37 214.02 184.35 217.77 188.65 216.58 186.6 212.87"/><polygon className="cls-7" points="206.71 234.7 204.33 230.4 198.27 232.06 200.6 236.26 206.71 234.7"/><polygon className="cls-7" points="195.61 214.66 193.58 210.99 187.5 212.63 189.56 216.33 195.61 214.66"/><polygon className="cls-7" points="198.26 193.34 199.62 195.35 204.94 194.17 203.53 192.26 198.26 193.34"/><polygon className="cls-7" points="175.33 200.72 179.36 199.83 178.06 197.47 174.04 198.29 175.33 200.72"/><polygon className="cls-7" points="191.74 193.74 196.74 192.72 193.99 188.65 189.09 189.46 191.74 193.74"/><polygon className="cls-7" points="185.75 194.97 190.79 193.94 188.12 189.62 183.23 190.43 185.75 194.97"/><polygon className="cls-7" points="183.74 207.71 182.02 204.62 177.94 205.65 179.61 208.8 183.74 207.71"/><polygon className="cls-7" points="203.92 191.25 208.43 190.33 205.6 186.74 201.13 187.47 203.92 191.25"/><polygon className="cls-7" points="177.59 196.63 174.91 191.8 170.95 192.45 173.6 197.45 177.59 196.63"/><polygon className="cls-7" points="200.15 237.32 195.35 238.54 197.43 242.46 202.33 241.25 200.15 237.32"/><polygon className="cls-7" points="222.96 231.5 216.2 233.22 218.67 237.21 225.65 235.48 222.96 231.5"/><polygon className="cls-7" points="215.28 233.46 208.08 235.29 210.29 239.28 217.74 237.44 215.28 233.46"/><polygon className="cls-7" points="230.96 229.46 223.9 231.26 226.59 235.25 233.9 233.44 230.96 229.46"/><polygon className="cls-7" points="237.91 227.69 231.91 229.22 234.85 233.21 241.06 231.67 237.91 227.69"/><polygon className="cls-7" points="197.37 232.31 192.72 233.58 194.91 237.71 199.69 236.49 197.37 232.31"/><polygon className="cls-7" points="211.57 227.48 209.2 223.65 202.62 225.43 204.78 229.34 211.57 227.48"/><polygon className="cls-7" points="222.42 230.7 219.42 226.27 212.99 228.03 215.7 232.41 222.42 230.7"/><polygon className="cls-7" points="203.88 229.58 201.71 225.67 195.64 227.31 197.82 231.24 203.88 229.58"/><polygon className="cls-7" points="192.29 232.75 196.92 231.49 194.74 227.56 190.19 228.79 192.29 232.75"/><polygon className="cls-7" points="198.51 219.9 196.07 215.48 190.01 217.15 192.39 221.45 198.51 219.9"/><polygon className="cls-7" points="230.38 228.67 227.07 224.18 220.35 226.01 223.35 230.46 230.38 228.67"/><polygon className="cls-7" points="201.26 224.85 198.97 220.72 192.85 222.27 195.19 226.5 201.26 224.85"/><polygon className="cls-7" points="217.44 209.59 220.85 214.21 226.2 212.85 222.52 208.19 217.44 209.59"/><polygon className="cls-7" points="210.79 200.57 215.53 199.32 213.4 196.63 208.76 197.81 210.79 200.57"/><polygon className="cls-7" points="206.5 194.76 208.17 197.02 212.79 195.85 211.12 193.74 206.5 194.76"/><polygon className="cls-7" points="237.29 226.91 233.71 222.36 228.01 223.92 231.33 228.43 237.29 226.91"/><polygon className="cls-7" points="211.37 201.36 213.76 204.59 218.64 203.27 216.14 200.1 211.37 201.36"/><polygon className="cls-7" points="224.71 219.45 227.43 223.13 233.09 221.58 230.23 217.95 224.71 219.45"/><polygon className="cls-7" points="205.91 193.96 210.5 192.94 209.06 191.13 204.52 192.06 205.91 193.96"/><polygon className="cls-7" points="216.86 208.8 221.91 207.41 219.26 204.05 214.34 205.38 216.86 208.8"/><path className="cls-2" d="M266.62,190.29v8.19a16.48,16.48,0,0,1-2.73,2.12c-1.52.91-13.95,3-13.95,3l15.77,17.28s14.44-1.57,18.49-2.73c4.24-1.21,3.33-16.67,3.33-16.67Z" transform="translate(-9.18)"/><path className="cls-6" d="M266.62,190.29v8.19s-.23.22-.59.53l18.43,19.07c3.94-1.77,3.07-16.57,3.07-16.57Z" transform="translate(-9.18)"/><polygon className="cls-2" points="229.54 85.7 229.54 172.41 295.63 224.55 295.63 90.55 229.54 85.7"/><polygon className="cls-3" points="234.09 90.25 234.09 163.31 289.57 197.57 289.57 95.1 234.09 90.25"/><rect className="cls-6" x="295.63" y="90.55" width="6.67" height="134.03"/><polygon className="cls-2" points="237.72 94.8 238.03 159.98 284.41 186.35 284.41 105.64 252.58 100.82 250.46 96.31 237.72 94.8"/><polygon className="cls-3" points="240.76 102.68 240.76 158.16 281.69 179.99 281.69 109.95 240.76 102.68"/><ellipse className="cls-7" cx="269.05" cy="142.39" rx="11.03" ry="15.2" transform="translate(-40.52 93.07) rotate(-18.56)"/><path className="cls-8" d="M270.26,143.33l3.89-4.31a2.21,2.21,0,0,0-.08-2.59c-.58-.83-1.49-1-2-.42l-3.75,4.16-3.74-6c-.55-.87-1.46-1.14-2-.6a2.12,2.12,0,0,0-.07,2.55l3.88,6.25-3.88,4.31a2.21,2.21,0,0,0,.07,2.59,1.81,1.81,0,0,0,1,.73,1,1,0,0,0,1.06-.32l3.74-4.15,3.75,6a1.85,1.85,0,0,0,1,.84,1,1,0,0,0,1-.24,2.13,2.13,0,0,0,.08-2.56Z" transform="translate(-9.18)"/><line className="cls-9" x1="248.03" y1="121.47" x2="270.95" y2="128.21"/><line className="cls-9" x1="247.12" y1="115.11" x2="276.83" y2="123.4"/><path className="cls-2" d="M276.78,258s-14.48,1.34-19.85,5.64-1.34,6.43,3.76,7.77,27.89-.8,30.84-3.75S291.53,257.43,276.78,258Z" transform="translate(-9.18)"/><path className="cls-6" d="M291.53,267.62a3.47,3.47,0,0,0,1-2.12c-6.5-.32-15,1.56-22.73,4a81.15,81.15,0,0,1-7.95,2.09C268.6,272.44,288.77,270.38,291.53,267.62Z" transform="translate(-9.18)"/><line className="cls-10" x1="216.23" y1="98.82" x2="226.82" y2="104.32"/><line className="cls-10" x1="210.15" y1="95.66" x2="213.3" y2="97.3"/><line className="cls-10" x1="218.56" y1="126.58" x2="222.15" y2="126.99"/><line className="cls-10" x1="204.82" y1="124.99" x2="214.5" y2="126.11"/><line className="cls-10" x1="220.82" y1="152.32" x2="208.82" y2="155.66"/></g><g id="Clock"><path className="cls-7" d="M214.52,5.69a28.7,28.7,0,1,0,28.7,28.7A28.7,28.7,0,0,0,214.52,5.69Zm0,51.76a23.07,23.07,0,1,1,23.06-23.06A23.06,23.06,0,0,1,214.52,57.45Z" transform="translate(-9.18)"/><path className="cls-7" d="M216.57,34.39a2.05,2.05,0,1,1-2-2A2.05,2.05,0,0,1,216.57,34.39Z" transform="translate(-9.18)"/><polyline className="cls-10" points="198.45 44.8 205.33 34.39 216.94 43.99"/></g><g id="File_Cabinet" data-name="File Cabinet"><polyline className="cls-4" points="53.03 56.39 49.58 46.96 51.42 49.03 51.42 45.81 55.33 51.79 51.88 30.4 56.48 42.13 56.94 31.78 57.63 35.23 58.55 23.5 60.16 41.44 62.46 35.23 62 43.28 68.21 24.88 65.22 47.88 69.59 44.66 67.06 48.8 70.28 46.5 66.6 57.08 53.26 57.31"/><polygon className="cls-11" points="67.79 79.62 53.41 79.62 49.53 54.7 71.66 54.7 67.79 79.62"/><rect className="cls-12" x="34.56" y="79.45" width="72.59" height="193.11"/><rect className="cls-10" x="38.79" y="85.79" width="63.43" height="46.51"/><rect className="cls-7" x="57.82" y="104.82" width="25.37" height="8.46"/><rect className="cls-10" x="38.79" y="140.06" width="63.43" height="46.51"/><rect className="cls-7" x="57.82" y="159.08" width="25.37" height="8.46"/><rect className="cls-10" x="38.79" y="194.32" width="63.43" height="46.51"/><rect className="cls-7" x="57.82" y="213.35" width="25.37" height="8.46"/></g><g id="Character"><g className="cls-13"><path className="cls-6" d="M124.13,261.54s36.38-16.07,55.94-17.28l14.21,31.53H86.55Z" transform="translate(-9.18)"/><path className="cls-8" d="M168.41,71.55s25.6,30.43,31,36,5.58,9.63,3.85,12.13-14.83,7.13-28.31,15.79-51.8,31-52.18,31.77-4-26.95-4-26.95l64.12-26.38-.2-1.93L161.86,73.48Z" transform="translate(-9.18)"/><g className="cls-14"><path className="cls-4" d="M193.06,116.45,163.29,73.06l-1.43.42L182.65,112l.2,1.93L118.73,140.3s.06.47.17,1.29l4.17,9.59Z" transform="translate(-9.18)"/><path className="cls-15" d="M193.06,116.45,163.29,73.06l-1.43.42L182.65,112l.2,1.93L118.73,140.3s.06.47.17,1.29l4.17,9.59Z" transform="translate(-9.18)"/></g><path className="cls-9" d="M168.41,71.55s25.6,30.43,31,36,5.58,9.63,3.85,12.13-14.83,7.13-28.31,15.79-51.8,31-52.18,31.77-4-26.95-4-26.95l64.12-26.38-.2-1.93L161.86,73.48Z" transform="translate(-9.18)"/><path className="cls-2" d="M148,58.27s-3.08-2.7-4.62,0-1.73,7.12-.77,7.51,4.82-.2,5.39-1.35S148,58.27,148,58.27Z" transform="translate(-9.18)"/><path className="cls-2" d="M153.39,56.92s-3.28-3.47-5.4-2.12-1.54,8.67-.77,9.24,5.4-1,6-1.92S153.39,56.92,153.39,56.92Z" transform="translate(-9.18)"/><path className="cls-2" d="M160.7,57.11s-2.89-4-5.58-4-4.62,9.63-3.66,10.4,7.32-.2,7.7-.77A50.16,50.16,0,0,0,160.7,57.11Z" transform="translate(-9.18)"/><path className="cls-2" d="M166.29,63.66c0-1.16-.58-11.17-4-10.59s-7.12,8.66-6.93,10S166.29,63.66,166.29,63.66Z" transform="translate(-9.18)"/><path className="cls-2" d="M182.85,113.92s9.82,3.65,13.48,3.46" transform="translate(-9.18)"/><path className="cls-8" d="M102.1,276.05c10.46-1.76,23.85-8.95,27.84-18-3-15.69-6.79-37.79-6.79-51.3,0-22.72,6-35.63,3.28-51s-8.47-25.42-14.64-29.46c0,0-9.43,2.5-19.06,11.55s-18.1,24.65-21.37,39.48-7.71,60.46-7.71,72.4-.86,26.76-.86,26.76c11.53,0,23.06,0,34.6,0A27.51,27.51,0,0,0,102.1,276.05Z" transform="translate(-9.18)"/><g className="cls-16"><path className="cls-4" d="M129.94,258c-5.86,5-32.24,14.72-36.1,15.58s-1.71-7.28,4.29-15.41-7.28,3-9.42,3.85.85-15.84.85-24,7.71-77.49,7.71-77.49l14.55-26.54,5-3a21.48,21.48,0,0,0-5-4.79s-9.43,2.5-19.06,11.55-18.1,24.65-21.37,39.48-7.71,60.46-7.71,72.4-.86,26.76-.86,26.76c11.53,0,23.06,0,34.6,0a27.51,27.51,0,0,0,4.71-.42C112.56,274.29,126,267.1,129.94,258Z" transform="translate(-9.18)"/><path className="cls-15" d="M129.94,258c-5.86,5-32.24,14.72-36.1,15.58s-1.71-7.28,4.29-15.41-7.28,3-9.42,3.85.85-15.84.85-24,7.71-77.49,7.71-77.49l14.55-26.54,5-3a21.48,21.48,0,0,0-5-4.79s-9.43,2.5-19.06,11.55-18.1,24.65-21.37,39.48-7.71,60.46-7.71,72.4-.86,26.76-.86,26.76c11.53,0,23.06,0,34.6,0a27.51,27.51,0,0,0,4.71-.42C112.56,274.29,126,267.1,129.94,258Z" transform="translate(-9.18)"/></g><path className="cls-9" d="M102.1,276.05c10.46-1.76,23.85-8.95,27.84-18-3-15.69-6.79-37.79-6.79-51.3,0-22.72,6-35.63,3.28-51s-8.47-25.42-14.64-29.46c0,0-9.43,2.5-19.06,11.55s-18.1,24.65-21.37,39.48-7.71,60.46-7.71,72.4-.86,26.76-.86,26.76c11.53,0,23.06,0,34.6,0A27.51,27.51,0,0,0,102.1,276.05Z" transform="translate(-9.18)"/><path className="cls-6" d="M111.23,129.82l16.55,30.12.88,16.52s4.61-11.79,2.56-19.48S111.23,129.82,111.23,129.82Z" transform="translate(-9.18)"/><polygon className="cls-6" points="119.47 176.46 114.86 246.17 119.99 260.53 123.58 231.82 120.5 174.41 119.47 176.46"/><path className="cls-8" d="M124.12,101.59s.58,7.51,1.15,11.17-8.47,13.86-8.47,13.86l13.09,19.84,14.83-11.56s21-1.54,22.91-3.27,1.93-20.8,1.93-20.8l5-2.88s-4.62-20-5.78-24.46l-1.16-4.43s6.74-2.31,5.2-9-11.36-10-21.18-8.47-12.32,5.2-12.32,5.2-13.86-.19-21.76,6.35S114.49,90,117,93.7A57.72,57.72,0,0,0,124.12,101.59Z" transform="translate(-9.18)"/><g className="cls-17"><path className="cls-4" d="M147.35,128.49c-3.85-4.71,0-22.69,3-31.68S146.07,84,146.07,84l21.86-3.77c-.29-1.13-.3-1.14-.3-1.14a9.66,9.66,0,0,0,3.83-2.7l1.18-7c-2-6.32-11.47-9.36-21-7.87-9.82,1.54-12.32,5.2-12.32,5.2s-13.86-.19-21.76,6.35S114.49,90,117,93.7a57.72,57.72,0,0,0,7.13,7.89s.58,7.51,1.15,11.17-8.47,13.86-8.47,13.86l13.09,19.84,14.83-11.56s16-1.17,21.36-2.63l1.55-.64S151.21,133.2,147.35,128.49Z" transform="translate(-9.18)"/><path className="cls-15" d="M147.35,128.49c-3.85-4.71,0-22.69,3-31.68S146.07,84,146.07,84l21.86-3.77c-.29-1.13-.3-1.14-.3-1.14a9.66,9.66,0,0,0,3.83-2.7l1.18-7c-2-6.32-11.47-9.36-21-7.87-9.82,1.54-12.32,5.2-12.32,5.2s-13.86-.19-21.76,6.35S114.49,90,117,93.7a57.72,57.72,0,0,0,7.13,7.89s.58,7.51,1.15,11.17-8.47,13.86-8.47,13.86l13.09,19.84,14.83-11.56s16-1.17,21.36-2.63l1.55-.64S151.21,133.2,147.35,128.49Z" transform="translate(-9.18)"/></g><path className="cls-9" d="M124.12,101.59s.58,7.51,1.15,11.17-8.47,13.86-8.47,13.86l13.09,19.84,14.83-11.56s21-1.54,22.91-3.27,1.93-20.8,1.93-20.8l5-2.88s-4.62-20-5.78-24.46l-1.16-4.43s6.74-2.31,5.2-9-11.36-10-21.18-8.47-12.32,5.2-12.32,5.2-13.86-.19-21.76,6.35S114.49,90,117,93.7A57.72,57.72,0,0,0,124.12,101.59Z" transform="translate(-9.18)"/><path className="cls-6" d="M142.6,82.72c3.47-2.31,25-3.66,25-3.66s6.74-2.31,5.2-9-11.36-10-21.18-8.47-12.32,5.2-12.32,5.2-13.86-.19-21.76,6.35S114.49,90,117,93.7a57.72,57.72,0,0,0,7.13,7.89s.31,4.12.71,7.75l6,1.69,6.54-3.47L144,106s-4.81-3.66-2.12-7.12,7.7-4.63,7.9-7.32S139.14,85,142.6,82.72Z" transform="translate(-9.18)"/><path className="cls-18" d="M163.62,71.53s-2.26-4.14,1.88-3.39,4.14,7.9.75,9.41-21.83-1.88-32,1.13S117,90,117,90" transform="translate(-9.18)"/><path className="cls-18" d="M122.6,96.37s7.9-6.78,14.3-7.91,9.78-1.12,2.63,3-2.26,3.38,2.26,1.88" transform="translate(-9.18)"/><path className="cls-4" d="M139.14,111.22S138,99.09,132,98.7,126.24,107,128,113s6,7.9,9.43,4.82" transform="translate(-9.18)"/><g className="cls-19"><path className="cls-20" d="M139.14,111.22S138,99.09,132,98.7,126.24,107,128,113s6,7.9,9.43,4.82" transform="translate(-9.18)"/></g><path className="cls-9" d="M139.14,111.22S138,99.09,132,98.7,126.24,107,128,113s6,7.9,9.43,4.82" transform="translate(-9.18)"/><path className="cls-8" d="M117.38,119.31l19.25,29.27-8.85,11.36a222.65,222.65,0,0,0-13.29-22.34c-6.55-9.24-7.32-10.78-7.32-10.78Z" transform="translate(-9.18)"/><g className="cls-21"><path className="cls-4" d="M117.38,119.31l-10.21,7.51s.57,1.13,4.77,7.16l10.78-6.55Z" transform="translate(-9.18)"/><path className="cls-15" d="M117.38,119.31l-10.21,7.51s.57,1.13,4.77,7.16l10.78-6.55Z" transform="translate(-9.18)"/></g><path className="cls-9" d="M117.38,119.31l19.25,29.27-8.85,11.36a222.65,222.65,0,0,0-13.29-22.34c-6.55-9.24-7.32-10.78-7.32-10.78Z" transform="translate(-9.18)"/><path className="cls-2" d="M166.86,192.09s3.09-6.35,3.66-10.39.77-6.36,3.08-8.28,9.82-9.63,11-12.52,1.93-.19,2.5,2.12.39,4.43-1.54,5.77a22,22,0,0,0-3.66,3.47l1.74,1.35s24.07-9.05,26.57-10,4.81-.19,5,1.74-.58,2.12-1.74,2.69-13.86,5-15.59,5.78l-1.74.77,1.35,1.35s6.93-.19,10.4-.39,8.66-.77,9.43.39a2.41,2.41,0,0,1-.57,3.27,3.75,3.75,0,0,1-3.08,1c-1.74,0-16.56,1.16-16.56,1.16l.38,2.12s15.79,2.5,16.37,3.27.58,1.16,0,2.31-1,1.16-2.51,1.16-14.05-1.93-14.05-1.93,6.16,3.47,6.93,4,3.47,1,2.7,2.31-1.16,1.73-2.31,1.54-9.44-3.85-9.44-3.85-8.28,1.15-11,1.34a36.84,36.84,0,0,1-6-.19l-7.71,5Z" transform="translate(-9.18)"/><path className="cls-8" d="M112.18,183.43s-5.59-23.3-7.9-28.5-15.4-10-21.75,1.35-.58,24.26,1.73,33.5,16.94,51,19.06,56.23,6,4,8.09,3.46,60.65-47.75,60.65-47.75l-4.62-10.4L122,214.62Z" transform="translate(-9.18)"/><g className="cls-22"><path className="cls-4" d="M110.54,234.65a140.76,140.76,0,0,1,5.14-13.27c2.14-4.28-10.28,9.85-12.85,2.14S84,177.29,87,164.45a24.3,24.3,0,0,1,9.77-14.74c-4.77-1.13-10.61.07-14.24,6.57-6.36,11.36-.58,24.26,1.73,33.5s16.94,51,19.06,56.23,6,4,8.09,3.46c1.54-.42,33-25.54,50-39.17Z" transform="translate(-9.18)"/><path className="cls-15" d="M110.54,234.65a140.76,140.76,0,0,1,5.14-13.27c2.14-4.28-10.28,9.85-12.85,2.14S84,177.29,87,164.45a24.3,24.3,0,0,1,9.77-14.74c-4.77-1.13-10.61.07-14.24,6.57-6.36,11.36-.58,24.26,1.73,33.5s16.94,51,19.06,56.23,6,4,8.09,3.46c1.54-.42,33-25.54,50-39.17Z" transform="translate(-9.18)"/></g><path className="cls-9" d="M112.18,183.43s-5.59-23.3-7.9-28.5-15.4-10-21.75,1.35-.58,24.26,1.73,33.5,16.94,51,19.06,56.23,6,4,8.09,3.46,60.65-47.75,60.65-47.75l-4.62-10.4L122,214.62Z" transform="translate(-9.18)"/><line className="cls-2" x1="151.52" y1="195.17" x2="156.72" y2="205.76"/><path className="cls-2" d="M38.55,142.05,12,160.5s13.1,13.85,11.75,50.22c-1,27.77,2.67,59.3,8,65.71H60s-9.79-54-9.08-84.94C51.49,168,44.43,151.67,38.55,142.05Z" transform="translate(-9.18)"/><path className="cls-6" d="M41.75,142.05,15.15,160.5s13.11,13.85,11.76,50.22c-1,27.77,2.67,59.3,8,65.71H63.24s-9.79-54-9.09-84.94C54.69,168,47.63,151.67,41.75,142.05Z" transform="translate(-9.18)"/><polygon className="cls-2" points="29.37 142.05 32.56 142.05 5.97 160.5 2.77 160.5 29.37 142.05"/></g></g></g></svg>